<?xml version="1.0" encoding="iso-8859-1"?>
<!-- Uploaded to: SVG Repo, www.svgrepo.com, Generator: SVG Repo Mixer Tools -->
<svg height="800px" width="800px" version="1.1" id="Layer_1" xmlns="http://www.w3.org/2000/svg" xmlns:xlink="http://www.w3.org/1999/xlink" 
	 viewBox="0 0 512 512" xml:space="preserve">
<g transform="translate(1)">
	<polygon style="fill:#63D3FD;" points="220.867,59.733 289.133,59.733 289.133,8.533 220.867,8.533 	"/>
	<g>
		<polygon style="fill:#FFE100;" points="186.733,324.267 323.267,324.267 323.267,290.133 186.733,290.133 		"/>
		<polygon style="fill:#FFE100;" points="203.8,358.4 306.2,358.4 306.2,324.267 203.8,324.267 		"/>
		<polygon style="fill:#FFE100;" points="237.933,503.467 272.067,503.467 272.067,358.4 237.933,358.4 		"/>
		<polygon style="fill:#FFE100;" points="459.8,34.133 459.8,59.733 391.533,59.733 391.533,34.133 289.133,34.133 289.133,59.733 
			220.867,59.733 220.867,34.133 118.467,34.133 118.467,59.733 50.2,59.733 50.2,34.133 7.533,34.133 7.533,290.133 
			502.467,290.133 502.467,34.133 		"/>
	</g>
	<polygon style="fill:#FFA800;" points="476.867,290.133 502.467,290.133 502.467,34.133 476.867,34.133 	"/>
	<polygon style="fill:#FFFFFF;" points="7.533,290.133 33.133,290.133 33.133,34.133 7.533,34.133 	"/>
	<g>
		<polygon style="fill:#63D3FD;" points="50.2,59.733 118.467,59.733 118.467,8.533 50.2,8.533 		"/>
		<polygon style="fill:#63D3FD;" points="391.533,59.733 459.8,59.733 459.8,8.533 391.533,8.533 		"/>
	</g>
	<g>
		<polygon style="fill:#3DB9F9;" points="434.2,59.733 459.8,59.733 459.8,8.533 434.2,8.533 		"/>
		<polygon style="fill:#3DB9F9;" points="263.533,59.733 289.133,59.733 289.133,8.533 263.533,8.533 		"/>
		<polygon style="fill:#3DB9F9;" points="92.867,59.733 118.467,59.733 118.467,8.533 92.867,8.533 		"/>
	</g>
	<path style="fill:#00DA6C;" d="M109.933,136.533v34.133c0,28.16,23.04,51.2,51.2,51.2s51.2-23.04,51.2-51.2v-34.133H109.933z"/>
	<path style="fill:#00AD55;" d="M186.733,136.533v34.133c0,23.893-16.213,43.52-38.4,49.493c4.267,0.853,8.533,1.707,12.8,1.707
		c28.16,0,51.2-23.04,51.2-51.2v-34.133H186.733z"/>
	<path d="M323.267,332.8H186.733c-5.12,0-8.533-3.413-8.533-8.533v-34.133c0-5.12,3.413-8.533,8.533-8.533h136.533
		c5.12,0,8.533,3.413,8.533,8.533v34.133C331.8,329.387,328.387,332.8,323.267,332.8z M195.267,315.733h119.467v-17.067H195.267
		V315.733z"/>
	<path d="M306.2,366.933H203.8c-5.12,0-8.533-3.413-8.533-8.533v-34.133c0-5.12,3.413-8.533,8.533-8.533h102.4
		c5.12,0,8.533,3.413,8.533,8.533V358.4C314.733,363.52,311.32,366.933,306.2,366.933z M212.333,349.867h85.333V332.8h-85.333
		V349.867z"/>
	<path d="M272.067,512h-34.133c-5.12,0-8.533-3.413-8.533-8.533V358.4c0-5.12,3.413-8.533,8.533-8.533h34.133
		c5.12,0,8.533,3.413,8.533,8.533v145.067C280.6,508.587,277.187,512,272.067,512z M246.467,494.933h17.067v-128h-17.067V494.933z"
		/>
	<path d="M502.467,512H7.533C2.413,512-1,508.587-1,503.467c0-5.12,3.413-8.533,8.533-8.533h494.933c5.12,0,8.533,3.413,8.533,8.533
		C511,508.587,507.587,512,502.467,512z"/>
	<path d="M118.467,68.267H50.2c-5.12,0-8.533-3.413-8.533-8.533v-51.2C41.667,3.413,45.08,0,50.2,0h68.267
		C123.587,0,127,3.413,127,8.533v51.2C127,64.853,123.587,68.267,118.467,68.267z M58.733,51.2h51.2V17.067h-51.2V51.2z"/>
	<path d="M459.8,68.267h-68.267c-5.12,0-8.533-3.413-8.533-8.533v-51.2C383,3.413,386.413,0,391.533,0H459.8
		c5.12,0,8.533,3.413,8.533,8.533v51.2C468.333,64.853,464.92,68.267,459.8,68.267z M400.067,51.2h51.2V17.067h-51.2V51.2z"/>
	<path d="M289.133,68.267h-68.267c-5.12,0-8.533-3.413-8.533-8.533v-51.2c0-5.12,3.413-8.533,8.533-8.533h68.267
		c5.12,0,8.533,3.413,8.533,8.533v51.2C297.667,64.853,294.253,68.267,289.133,68.267z M229.4,51.2h51.2V17.067h-51.2V51.2z"/>
	<path d="M502.467,298.667H7.533c-5.12,0-8.533-3.413-8.533-8.533v-256c0-5.12,3.413-8.533,8.533-8.533H50.2
		c5.12,0,8.533,3.413,8.533,8.533V51.2h51.2V34.133c0-5.12,3.413-8.533,8.533-8.533h102.4c5.12,0,8.533,3.413,8.533,8.533V51.2h51.2
		V34.133c0-5.12,3.413-8.533,8.533-8.533h102.4c5.12,0,8.533,3.413,8.533,8.533V51.2h51.2V34.133c0-5.12,3.413-8.533,8.533-8.533
		h42.667c5.12,0,8.533,3.413,8.533,8.533v256C511,295.253,507.587,298.667,502.467,298.667z M16.067,281.6h477.867V42.667h-25.6
		v17.067c0,5.12-3.413,8.533-8.533,8.533h-68.267c-5.12,0-8.533-3.413-8.533-8.533V42.667h-85.333v17.067
		c0,5.12-3.413,8.533-8.533,8.533h-68.267c-5.12,0-8.533-3.413-8.533-8.533V42.667H127v17.067c0,5.12-3.413,8.533-8.533,8.533H50.2
		c-5.12,0-8.533-3.413-8.533-8.533V42.667h-25.6V281.6z"/>
	<path d="M212.333,230.4h-102.4c-5.12,0-8.533-3.413-8.533-8.533c0-5.12,3.413-8.533,8.533-8.533h102.4
		c5.12,0,8.533,3.413,8.533,8.533C220.867,226.987,217.453,230.4,212.333,230.4z"/>
	<path d="M161.133,230.4c-33.28,0-59.733-26.453-59.733-59.733v-34.133c0-5.12,3.413-8.533,8.533-8.533h102.4
		c5.12,0,8.533,3.413,8.533,8.533v34.133C220.867,203.947,194.413,230.4,161.133,230.4z M118.467,145.067v25.6
		c0,23.893,18.773,42.667,42.667,42.667S203.8,194.56,203.8,170.667v-25.6H118.467z"/>
	<path d="M109.933,187.733c-28.16,0-51.2-23.04-51.2-51.2c0-5.12,3.413-8.533,8.533-8.533h42.667c5.12,0,8.533,3.413,8.533,8.533
		s-3.413,8.533-8.533,8.533h-33.28c3.413,14.507,17.067,25.6,33.28,25.6c5.12,0,8.533,3.413,8.533,8.533
		C118.467,184.32,115.053,187.733,109.933,187.733z"/>
	<path d="M425.667,145.067H306.2c-5.12,0-8.533-3.413-8.533-8.533S301.08,128,306.2,128h119.467c5.12,0,8.533,3.413,8.533,8.533
		S430.787,145.067,425.667,145.067z"/>
	<path d="M425.667,230.4H306.2c-5.12,0-8.533-3.413-8.533-8.533c0-5.12,3.413-8.533,8.533-8.533h119.467
		c5.12,0,8.533,3.413,8.533,8.533C434.2,226.987,430.787,230.4,425.667,230.4z"/>
	<path d="M442.733,187.733h-153.6c-5.12,0-8.533-3.413-8.533-8.533c0-5.12,3.413-8.533,8.533-8.533h153.6
		c5.12,0,8.533,3.413,8.533,8.533C451.267,184.32,447.853,187.733,442.733,187.733z"/>
</g>
</svg>